<?xml version="1.0" encoding="utf-8"?>
<!-- Generator: Adobe Illustrator 23.0.3, SVG Export Plug-In . SVG Version: 6.00 Build 0)  -->
<svg version="1.1" id="BG" xmlns="http://www.w3.org/2000/svg" xmlns:xlink="http://www.w3.org/1999/xlink" x="0px" y="0px"
	 viewBox="0 0 1214 941" style="enable-background:new 0 0 1214 941;" xml:space="preserve">
<style type="text/css">
	.st0{fill:#52B1DB;}
	.st1{fill:none;stroke:#4E768D;stroke-miterlimit:10;}
	.st2{fill:#FBB03B;}
	.st3{fill:#4E768D;}
	.st4{fill:none;stroke:#FBB03B;stroke-width:6;stroke-miterlimit:10;}
	.st5{fill:none;stroke:#FBB03B;stroke-width:6;stroke-miterlimit:10;stroke-dasharray:12.14,12.14;}
	.st6{fill:none;stroke:#50778F;stroke-width:7;stroke-miterlimit:10;}
	.st7{fill:none;stroke:#50778F;stroke-width:7;stroke-miterlimit:10;stroke-dasharray:12.14,12.14;}
	.st8{fill:#53B1DA;}
</style>
<g>
	<path class="st0" d="M111.1,453.6c-1-0.1-2,0.3-2.6,1.1c-0.6,1.2-0.8,2.5-0.7,3.9v1h4.9v2.3h-4.9v18h-3.1v-18h-3.3l0.3-2l3-0.3
		v-0.9c0-2.6,0.5-4.5,1.5-5.7c1-1.2,2.5-1.8,4.7-1.8c1,0,2,0.1,3,0.3l-0.2,2.4C112.7,453.8,111.9,453.7,111.1,453.6z"/>
	<path class="st0" d="M133.5,469.7c0.1,2.8-0.8,5.5-2.5,7.7c-1.8,2-4.3,3.1-7,2.9c-2.6,0.1-5.1-1-6.8-3c-3.4-4.5-3.4-10.8,0-15.3
		c1.8-2,4.3-3.1,7-2.9c2.6-0.1,5.1,1,6.8,2.9C132.8,464.2,133.7,466.9,133.5,469.7z M117.9,469.8c-0.1,2.1,0.5,4.1,1.6,5.8
		c1.1,1.5,2.9,2.3,4.7,2.2c1.8,0.1,3.5-0.7,4.6-2.2c2.1-3.6,2.1-8.1,0-11.7c-2.2-2.6-6-2.9-8.6-0.7c-0.3,0.2-0.5,0.5-0.7,0.7
		C118.3,465.6,117.8,467.7,117.9,469.8z"/>
	<path class="st0" d="M137.9,479.9v-20.4h2.6l0.4,2.9c0.8-1,1.8-1.8,3-2.4c1.2-0.6,2.6-0.9,3.9-0.9c2.3,0,4.1,0.7,5.2,2
		c1.1,1.3,1.7,3.4,1.7,6.1v12.7h-3.1c0-8.2,0-12.5,0-13.1c0.1-1.3-0.3-2.7-1-3.8c-0.8-0.9-2-1.3-3.3-1.2c-1.4-0.1-2.8,0.3-4,1.1
		c-1,0.7-1.8,1.8-2.1,3c-0.1,0.9-0.2,1.9-0.2,2.9v11.1L137.9,479.9L137.9,479.9z"/>
	<path class="st0" d="M166.4,480.3c-2,0-3.4-0.5-4.3-1.5c-1-1.4-1.4-3-1.3-4.7v-12.2h-3l0.1-2l2.9-0.3l1.1-4.7l2-0.1v4.7h5.7v2.3
		h-5.7v11.7c-0.1,1.1,0.1,2.3,0.7,3.3c0.6,0.7,1.5,1,2.4,1c0.9-0.1,1.8-0.2,2.6-0.3l0.1,2.5C168.6,480.1,167.5,480.2,166.4,480.3z"
		/>
	<path class="st0" d="M188.6,480.3c-1.3,0-2.6-0.1-3.8-0.5c-1-0.2-2-0.6-2.9-1.1l0.4-2.6c1.9,1,4,1.6,6.1,1.6c3,0,4.6-1.1,4.7-3.2
		c0-0.8-0.3-1.6-1-2.1c-1.2-0.8-2.4-1.4-3.8-1.7l-1.5-0.5c-1.4-0.4-2.8-1.2-3.8-2.2c-1.8-2.2-1.5-5.4,0.7-7.2c0,0,0,0,0,0
		c1.5-1.1,3.4-1.7,5.3-1.6c2.2,0,4.3,0.4,6.3,1.3l-0.9,2.4c-1.7-0.7-3.5-1.1-5.4-1.2c-1.1-0.1-2.1,0.2-3.1,0.8
		c-0.7,0.5-1.1,1.3-1.1,2.2c0,0.7,0.3,1.4,0.8,1.8c1,0.6,2.1,1.1,3.2,1.5c0.4,0.1,0.9,0.3,1.5,0.5c1.6,0.4,3.1,1.2,4.4,2.4
		c0.9,1,1.4,2.3,1.3,3.7c0.1,1.7-0.7,3.3-2,4.4C192.4,479.9,190.5,480.4,188.6,480.3z"/>
	<path class="st0" d="M203.9,452.1v3.7h-3.1v-3.7H203.9z M203.9,459.5v20.4h-3.1v-20.3L203.9,459.5L203.9,459.5z"/>
	<path class="st0" d="M222.8,479.9h-14.2v-2.3L219,462h-10.1v-2.5h13.6v2.5l-10.4,15.5h10.7V479.9L222.8,479.9z"/>
	<path class="st0" d="M235.2,480.3c-2.6,0.1-5.2-0.9-7-2.8c-1.8-2.2-2.7-4.9-2.6-7.7c-0.1-2.8,0.8-5.5,2.5-7.7c1.6-1.9,4-3,6.5-3
		c2.3-0.1,4.5,0.9,6,2.6c1.6,2,2.3,4.4,2.2,6.9c0,0.1,0,0.4,0,0.8s0,0.7,0,0.9h-14c-0.1,2,0.5,3.9,1.8,5.4c1.2,1.3,2.9,2,4.7,1.9
		c2.3,0,4.5-0.6,6.5-1.7l0.5,2.5C240.2,479.7,237.7,480.4,235.2,480.3z M238.4,463.3c-0.9-1.1-2.3-1.7-3.7-1.6
		c-1.5,0-2.9,0.6-3.9,1.7c-1.1,1.3-1.7,2.9-1.8,4.6h10.7C239.8,466.3,239.4,464.6,238.4,463.3L238.4,463.3z"/>
</g>
<polyline class="st1" points="309.7,505 285.1,505 285.1,429 309.7,429 "/>
<line class="st1" x1="285.1" y1="467" x2="261.1" y2="467"/>
<g>
	<path class="st2" d="M942.8,459.6c-2,0-3.4-0.5-4.2-1.6c-0.8-1.1-1.2-2.9-1.2-5.5v-21.5l3.1-0.2v20.5c0,0.8,0,1.5,0,2
		c0,0.5,0.1,1,0.1,1.5c0,0.4,0.1,0.8,0.3,1.1c0.1,0.3,0.3,0.5,0.5,0.7c0.2,0.2,0.5,0.3,0.8,0.4c0.4,0.1,0.8,0.1,1.2,0.1
		c0.8,0,1.6-0.1,2.3-0.2l0.2,2.5C945,459.4,943.9,459.5,942.8,459.6z"/>
	<path class="st2" d="M951.6,431.4v3.7h-3.1v-3.7H951.6z M951.6,438.8v20.4h-3.1v-20.4H951.6z"/>
	<path class="st2" d="M957.4,459.2v-20.4h2.6l0.4,2.9c0.8-1,1.8-1.8,3-2.4c1.2-0.6,2.6-0.9,3.9-0.9c2.3,0,4.1,0.7,5.2,2
		c1.1,1.3,1.7,3.4,1.7,6.1v12.7h-3.1c0-8.2,0-12.5,0-13.1c0.1-1.3-0.3-2.7-1-3.8c-0.8-0.9-2-1.3-3.3-1.2c-1.4-0.1-2.8,0.3-4,1.1
		c-1,0.7-1.8,1.8-2.1,3c-0.1,0.9-0.2,1.9-0.2,2.9v11.1L957.4,459.2L957.4,459.2z"/>
	<path class="st2" d="M988,459.6c-2.6,0.1-5.2-0.9-7-2.8c-1.8-2.2-2.7-4.9-2.5-7.7c-0.1-2.8,0.8-5.5,2.5-7.7c1.6-1.9,4-3,6.5-3
		c2.3-0.1,4.5,0.9,6,2.6c1.6,2,2.3,4.4,2.2,6.9c0,0.1,0,0.4,0,0.8s0,0.7,0,0.9h-14c-0.1,2,0.5,3.9,1.8,5.4c1.2,1.3,2.9,2,4.7,1.9
		c2.3,0,4.5-0.6,6.5-1.7l0.5,2.5C992.9,459,990.5,459.7,988,459.6z M991.1,442.6c-0.9-1.1-2.3-1.7-3.7-1.6c-1.5,0-2.9,0.6-3.9,1.7
		c-1.1,1.3-1.7,2.9-1.8,4.6h10.7C992.6,445.6,992.1,443.9,991.1,442.6L991.1,442.6z"/>
	<path class="st2" d="M1023.1,459.2v-12.3c0.1-1.5-0.2-3.1-1-4.5c-0.8-1-2.1-1.5-3.4-1.4c-1.4,0-2.8,0.4-3.9,1.2
		c-1,0.7-1.8,1.8-2.1,3c-0.1,1-0.2,2.1-0.2,3.1v10.9h-3.1v-28.2l3.1-0.2v8.3c0,0.7,0,1.6-0.1,2.6c1.7-2.1,4.2-3.3,6.9-3.2
		c4.5,0,6.8,2.7,6.8,8v12.8L1023.1,459.2L1023.1,459.2z"/>
	<path class="st2" d="M1038.7,459.6c-2.6,0.1-5.2-0.9-7-2.8c-1.8-2.2-2.7-4.9-2.6-7.7c-0.1-2.8,0.8-5.5,2.5-7.7c1.6-1.9,4-3,6.5-3
		c2.3-0.1,4.5,0.9,6,2.6c1.6,2,2.3,4.4,2.2,6.9c0,0.1,0,0.4,0,0.8s0,0.7,0,0.9h-14c-0.1,2,0.5,3.9,1.8,5.4c1.2,1.3,2.9,2,4.7,1.9
		c2.3,0,4.5-0.6,6.5-1.7l0.5,2.5C1043.6,459,1041.1,459.7,1038.7,459.6z M1041.8,442.6c-0.9-1.1-2.3-1.7-3.8-1.6
		c-1.5,0-2.9,0.6-3.9,1.7c-1.1,1.3-1.7,2.9-1.8,4.6h10.7C1043.2,445.6,1042.8,444,1041.8,442.6L1041.8,442.6z"/>
	<path class="st2" d="M1054.3,431.4v3.7h-3.1v-3.7H1054.3z M1054.3,438.8v20.4h-3.1v-20.4H1054.3z"/>
	<path class="st2" d="M1063.2,468.5l-0.3-2.8h3.8c0.9,0,1.8-0.1,2.8-0.2c0.7-0.1,1.4-0.4,1.9-0.7c0.5-0.3,0.9-0.7,1.3-1.1
		c0.4-0.5,0.6-1,0.7-1.6c0.2-0.7,0.3-1.3,0.3-2c0.1-0.7,0.1-1.5,0.1-2.4v-1.8c-0.7,1-1.6,1.8-2.6,2.5c-1.1,0.6-2.4,0.9-3.7,0.9
		c-1.1,0-2.2-0.2-3.2-0.6c-0.9-0.4-1.8-0.9-2.5-1.6c-0.7-0.7-1.3-1.5-1.7-2.3c-0.5-0.9-0.8-1.8-1-2.7c-0.2-0.9-0.3-1.9-0.3-2.8
		c0-1.4,0.2-2.8,0.6-4.1c0.3-1.2,0.9-2.4,1.6-3.4c0.7-1,1.7-1.8,2.8-2.3c1.3-0.6,2.6-0.9,4-0.8c1.2,0,2.4,0.2,3.5,0.8
		c1.1,0.6,2,1.4,2.7,2.4v-2.7h3v18.9c0,0.9,0,1.6-0.1,2.3c-0.1,0.7-0.2,1.4-0.3,2.2c-0.1,0.7-0.4,1.4-0.7,2
		c-0.3,0.6-0.7,1.2-1.2,1.7c-0.5,0.6-1.1,1.1-1.8,1.4c-0.8,0.4-1.7,0.7-2.6,0.9c-1.2,0.2-2.4,0.3-3.6,0.3L1063.2,468.5L1063.2,468.5
		z M1068,456.5c1,0,1.9-0.2,2.8-0.6c0.7-0.3,1.4-0.9,1.9-1.5c0.5-0.7,0.8-1.4,1-2.2c0.2-0.9,0.3-1.7,0.3-2.6v-1.5
		c0-0.9-0.1-1.8-0.3-2.7c-0.2-0.8-0.5-1.6-1-2.2c-0.5-0.7-1.1-1.2-1.9-1.5c-0.8-0.4-1.8-0.6-2.7-0.6c-0.8,0-1.6,0.2-2.3,0.5
		c-0.7,0.3-1.3,0.7-1.7,1.3c-0.5,0.6-0.9,1.2-1.2,1.8c-0.3,0.7-0.5,1.4-0.7,2.1c-0.1,0.7-0.2,1.4-0.2,2.2c0,0.7,0.1,1.4,0.2,2.1
		c0.2,0.7,0.4,1.4,0.7,2.1c0.3,0.6,0.7,1.2,1.2,1.8c0.5,0.5,1.1,0.9,1.7,1.2C1066.5,456.4,1067.2,456.5,1068,456.5L1068,456.5z"/>
	<path class="st2" d="M1095.8,459.2v-12.3c0.1-1.5-0.2-3.1-1-4.5c-0.8-1-2.1-1.5-3.4-1.4c-1.4,0-2.8,0.4-3.9,1.2
		c-1,0.7-1.8,1.8-2.1,3c-0.1,1-0.2,2.1-0.2,3.1v10.9h-3.1v-28.2l3.1-0.2v8.3c0,0.7,0,1.6-0.1,2.6c1.7-2.1,4.2-3.3,6.9-3.2
		c4.5,0,6.8,2.7,6.8,8v12.8L1095.8,459.2L1095.8,459.2z"/>
	<path class="st2" d="M1109.2,459.6c-2,0-3.4-0.5-4.3-1.5c-1-1.4-1.4-3-1.3-4.7v-12.2h-3l0.1-2l2.9-0.3l1.1-4.7l2-0.1v4.7h5.7v2.3
		h-5.7v11.7c-0.1,1.1,0.1,2.3,0.7,3.3c0.6,0.7,1.5,1,2.4,1c0.9-0.1,1.8-0.2,2.7-0.3l0.1,2.5C1111.5,459.4,1110.4,459.5,1109.2,459.6
		z"/>
</g>
<polyline class="st1" points="870.1,501.5 894.1,501.5 894.1,385.4 870.1,385.4 "/>
<line class="st1" x1="894.1" y1="443" x2="918.7" y2="443"/>
<g>
	<path class="st3" d="M127.6,424.5c-2,0-3.4-0.5-4.2-1.6c-0.8-1.1-1.2-2.9-1.2-5.5v-21.5l3.1-0.2v20.5c0,0.8,0,1.5,0,2
		c0,0.5,0.1,1,0.1,1.5c0,0.4,0.1,0.8,0.3,1.1c0.1,0.3,0.3,0.5,0.5,0.7c0.2,0.2,0.5,0.3,0.8,0.4c0.4,0.1,0.8,0.1,1.2,0.1
		c0.8,0,1.6-0.1,2.3-0.2l0.2,2.5C129.7,424.4,128.7,424.5,127.6,424.5z"/>
	<path class="st3" d="M141.3,424.6c-2.6,0.1-5.2-0.9-7-2.8c-1.8-2.2-2.7-4.9-2.6-7.7c-0.1-2.8,0.8-5.5,2.5-7.7c1.6-1.9,4-3,6.5-3
		c2.3-0.1,4.5,0.9,6,2.6c1.6,2,2.3,4.4,2.2,6.9c0,0.1,0,0.4,0,0.8s0,0.7,0,0.9h-14c-0.1,2,0.5,3.9,1.8,5.4c1.2,1.3,2.9,2,4.7,1.9
		c2.3,0,4.5-0.6,6.5-1.7l0.5,2.5C146.2,423.9,143.8,424.6,141.3,424.6z M144.4,407.6c-0.9-1.1-2.3-1.7-3.7-1.6
		c-1.5,0-2.9,0.6-3.9,1.7c-1.1,1.3-1.7,2.9-1.8,4.6h10.7C145.9,410.5,145.4,408.9,144.4,407.6L144.4,407.6z"/>
	<path class="st3" d="M165.6,424.1c-0.2-0.8-0.4-1.6-0.5-2.6c-0.9,1-2,1.8-3.2,2.3c-1.1,0.5-2.3,0.7-3.5,0.6
		c-1.7,0.1-3.3-0.4-4.6-1.5c-1.2-1.1-1.8-2.7-1.7-4.3c-0.1-1.9,0.8-3.6,2.4-4.6c2.1-1.2,4.4-1.8,6.8-1.9l1.9-0.2l1.8-0.1v-1.8
		c0.1-1.2-0.3-2.3-1-3.2c-0.9-0.7-2-1.1-3.1-1c-2.1,0-4.2,0.5-6.1,1.5c-0.1-0.1-0.2-0.6-0.5-1.3l-0.4-1.1c1-0.5,2.1-1,3.2-1.2
		c1.2-0.3,2.5-0.5,3.8-0.5c2.5,0,4.4,0.6,5.5,1.7s1.7,3,1.7,5.6v13.5L165.6,424.1L165.6,424.1z M158.9,422.1c1.4,0,2.8-0.4,3.9-1.2
		c1.1-0.8,1.9-2,2.2-3.3v-3.4l-1.1,0.1l-1.3,0.1c-1.9,0-3.9,0.5-5.6,1.3c-1.1,0.7-1.7,1.9-1.6,3.1c-0.1,0.9,0.3,1.8,1,2.5
		C157,421.8,157.9,422.1,158.9,422.1L158.9,422.1z"/>
	<path class="st3" d="M187.4,421.2c-0.7,1-1.6,1.9-2.7,2.5c-3.4,1.7-7.5,0.9-10-2c-1.6-2.3-2.4-5-2.3-7.8c-0.1-2.7,0.7-5.4,2.3-7.6
		c1.5-1.9,3.8-3,6.2-2.9c1.3,0,2.6,0.3,3.8,0.9c1.1,0.5,2,1.3,2.7,2.4l-0.1-1.8v-9l3.1-0.2v28.4h-2.6L187.4,421.2z M181.3,421.9
		c1.8,0.1,3.5-0.6,4.6-2c1.1-1.7,1.6-3.6,1.5-5.6c0-2.7-0.5-4.8-1.4-6.2c-1.1-1.5-2.8-2.2-4.6-2.1c-0.9,0-1.7,0.2-2.5,0.6
		c-0.7,0.4-1.3,1-1.8,1.7c-0.5,0.8-0.8,1.6-1,2.5c-0.2,1-0.3,2.1-0.3,3.1c0,1.4,0.2,2.8,0.6,4.1c0.3,1.1,1,2.1,1.9,2.8
		C179,421.5,180.2,421.9,181.3,421.9L181.3,421.9z"/>
	<path class="st3" d="M199.5,396.4v3.6h-3.1v-3.7L199.5,396.4L199.5,396.4z M199.5,403.8v20.4h-3.1v-20.4H199.5z"/>
	<path class="st3" d="M205.3,424.1v-20.4h2.6l0.4,2.9c0.8-1,1.8-1.8,3-2.4c1.2-0.6,2.6-0.9,3.9-0.9c2.3,0,4.1,0.7,5.2,2
		s1.7,3.4,1.7,6.1v12.7H219c0-8.2,0-12.5,0-13.1c0.1-1.3-0.3-2.7-1-3.8c-0.8-0.9-2-1.3-3.3-1.2c-1.4-0.1-2.8,0.3-4,1.1
		c-1,0.7-1.8,1.8-2.1,3c-0.1,0.9-0.2,1.9-0.2,2.9v11.1L205.3,424.1L205.3,424.1z"/>
	<path class="st3" d="M230.4,433.5l-0.3-2.8h3.8c0.9,0,1.8-0.1,2.8-0.2c0.7-0.1,1.4-0.4,1.9-0.7c0.5-0.3,0.9-0.7,1.3-1.1
		c0.4-0.5,0.6-1,0.7-1.6c0.2-0.7,0.3-1.3,0.3-2c0.1-0.7,0.1-1.5,0.1-2.4v-1.8c-0.7,1-1.6,1.8-2.6,2.5c-1.1,0.6-2.4,0.9-3.7,0.9
		c-1.1,0-2.2-0.2-3.2-0.6c-0.9-0.4-1.8-0.9-2.5-1.6c-0.7-0.7-1.3-1.5-1.7-2.3c-0.5-0.9-0.8-1.8-1-2.7c-0.2-0.9-0.3-1.9-0.3-2.8
		c0-1.4,0.2-2.8,0.6-4.1c0.3-1.2,0.9-2.4,1.6-3.4c0.7-1,1.7-1.8,2.8-2.3c1.3-0.6,2.6-0.9,4-0.8c1.2,0,2.4,0.2,3.5,0.8
		c1.1,0.6,2,1.4,2.7,2.4v-2.7h3v18.9c0,0.9,0,1.6-0.1,2.3c-0.1,0.7-0.2,1.4-0.3,2.2c-0.1,0.7-0.4,1.4-0.7,2
		c-0.3,0.6-0.7,1.2-1.2,1.7c-0.5,0.6-1.1,1.1-1.8,1.4c-0.8,0.4-1.7,0.7-2.6,0.9c-1.2,0.2-2.4,0.3-3.6,0.3L230.4,433.5L230.4,433.5z
		 M235.2,421.5c1,0,1.9-0.2,2.8-0.6c0.7-0.3,1.4-0.9,1.9-1.5c0.5-0.7,0.8-1.4,1-2.2c0.2-0.9,0.3-1.7,0.3-2.6V413
		c0-0.9-0.1-1.8-0.3-2.7c-0.2-0.8-0.5-1.6-1-2.2c-0.5-0.7-1.1-1.2-1.9-1.5c-0.8-0.4-1.8-0.6-2.7-0.6c-0.8,0-1.6,0.2-2.3,0.5
		c-0.7,0.3-1.3,0.7-1.7,1.3c-0.5,0.6-0.9,1.2-1.1,1.8c-0.3,0.7-0.5,1.4-0.7,2.1c-0.1,0.7-0.2,1.4-0.2,2.2c0,0.7,0.1,1.4,0.2,2.1
		c0.2,0.7,0.4,1.4,0.7,2.1c0.3,0.6,0.7,1.2,1.2,1.8c0.5,0.5,1.1,1,1.7,1.2C233.7,421.3,234.4,421.5,235.2,421.5L235.2,421.5z"/>
</g>
<polyline class="st1" points="309.7,429.6 285.1,429.6 285.1,389.4 309.7,389.4 "/>
<line class="st1" x1="285.1" y1="410.6" x2="261.1" y2="410.6"/>
<line class="st4" x1="320.2" y1="384.4" x2="326.2" y2="384.4"/>
<line class="st5" x1="338.3" y1="384.4" x2="842.2" y2="384.4"/>
<line class="st4" x1="848.3" y1="384.4" x2="854.3" y2="384.4"/>
<line class="st6" x1="319.2" y1="436.4" x2="325.2" y2="436.4"/>
<line class="st7" x1="337.3" y1="436.4" x2="841.2" y2="436.4"/>
<line class="st6" x1="847.3" y1="436.4" x2="853.3" y2="436.4"/>
<line class="st4" x1="319.2" y1="501" x2="325.2" y2="501"/>
<line class="st5" x1="337.3" y1="501" x2="841.2" y2="501"/>
<line class="st4" x1="847.3" y1="501" x2="853.3" y2="501"/>
<path class="st8" d="M357.6,336.8h-15v42.6h-10.1v-42.6h-15.2v-9h40.3V336.8z"/>
<path class="st8" d="M385.2,379.4v-20.9c0-3-0.4-5.2-1.2-6.5c-0.8-1.3-2.4-2-4.6-2c-1.6,0-3.2,0.6-4.5,1.7c-1.3,1.1-2.3,2.6-2.7,4.2
	v23.5h-9.6v-51.6h9.6v18.9h0.3c1.2-1.6,2.6-2.8,4.4-3.8c2-1,4.3-1.5,6.6-1.4c1.7,0,3.3,0.2,4.9,0.7c1.4,0.5,2.6,1.3,3.6,2.4
	c1.1,1.3,1.8,2.9,2.1,4.6c0.5,2.4,0.7,4.8,0.7,7.2v22.9L385.2,379.4L385.2,379.4z"/>
<path class="st8" d="M432.3,376.3c-1.8,1.4-3.8,2.4-6,3c-2.6,0.8-5.3,1.2-8.1,1.2c-5.9,0-10.3-1.7-13-5.2c-2.8-3.5-4.1-8.2-4.2-14.3
	c0-6.5,1.6-11.4,4.6-14.6c3.1-3.2,7.4-4.9,13-4.9c1.8,0,3.7,0.2,5.5,0.7c1.7,0.5,3.3,1.3,4.7,2.4c1.5,1.2,2.6,2.8,3.3,4.6
	c0.9,2.3,1.3,4.7,1.2,7.1c0,1.1-0.1,2.2-0.2,3.3c-0.1,1.2-0.3,2.4-0.5,3.7h-22.1c0.1,3.1,0.9,5.4,2.4,7c1.5,1.6,3.8,2.4,7,2.4
	c3.2,0,6.4-1,9.1-2.8L432.3,376.3z M418.6,349.2c-2.5,0-4.4,0.8-5.6,2.2c-1.3,1.7-2.1,3.8-2.2,6h13.7c0.2-2.7-0.2-4.7-1.2-6.1
	C422.2,349.9,420.4,349.1,418.6,349.2L418.6,349.2z"/>
<path class="st8" d="M455.5,342.6h5.1v-2.1c0-4.7,1-8,3-10.1s4.8-3.1,8.5-3.1c3.3-0.1,6.6,0.4,9.8,1.4l-1.8,7.7c-1-0.4-2-0.6-3-0.8
	c-0.9-0.1-1.8-0.2-2.7-0.2c-0.8,0-1.6,0.1-2.3,0.4c-0.6,0.3-1,0.8-1.2,1.4c-0.3,0.7-0.5,1.5-0.5,2.3c-0.1,0.9-0.1,2-0.1,3.1h8.1v8.1
	h-8.1v28.8h-9.6v-28.8h-5.1L455.5,342.6L455.5,342.6z"/>
<path class="st8" d="M482.4,344.7c2.2-1,4.6-1.7,7-2.1c2.8-0.5,5.6-0.8,8.5-0.8c2.2-0.1,4.3,0.3,6.4,0.9c3.1,1,5.5,3.5,6.2,6.7
	c0.4,1.7,0.6,3.5,0.6,5.3c0,2.2-0.1,4.3-0.2,6.5s-0.2,4.3-0.3,6.5c0,2.1,0.1,4.2,0.2,6.2c0.1,1.9,0.5,3.8,1.1,5.6h-7.8l-1.5-5.1
	h-0.4c-1.1,1.6-2.5,2.9-4.1,4c-2,1.2-4.4,1.8-6.8,1.7c-1.6,0-3.2-0.2-4.6-0.8c-2.6-1-4.8-3-5.8-5.6c-0.6-1.4-0.8-2.9-0.8-4.4
	c-0.1-2,0.5-4,1.5-5.7c1.1-1.6,2.6-2.9,4.4-3.8c2.1-1,4.4-1.7,6.8-2c2.9-0.4,5.9-0.5,8.8-0.3c0.3-2.8,0.1-4.7-0.6-5.9
	s-2.4-1.8-4.9-1.8c-2,0-4.1,0.2-6.1,0.6c-1.8,0.3-3.6,0.8-5.3,1.5L482.4,344.7z M494.5,372.1c1.6,0.1,3.2-0.4,4.6-1.3
	c1-0.7,1.9-1.7,2.5-2.8v-4.8c-1.5-0.1-2.9-0.2-4.4-0.1c-1.3,0.1-2.5,0.3-3.7,0.7c-1,0.3-1.9,0.8-2.6,1.5c-0.7,0.6-1,1.5-1,2.4
	c-0.1,1.2,0.4,2.4,1.2,3.2C492.1,371.8,493.3,372.2,494.5,372.1L494.5,372.1z"/>
<path class="st8" d="M534.4,369.3c0-0.9-0.5-1.8-1.2-2.4c-1-0.7-2-1.2-3.1-1.6c-1.2-0.5-2.6-1-4.1-1.5c-1.5-0.5-2.8-1.2-4.1-2.1
	c-1.3-0.9-2.3-2.1-3.1-3.5c-0.9-1.7-1.3-3.5-1.2-5.4c0-3.6,1.1-6.4,3.2-8.3c2.2-1.9,5.3-2.9,9.4-2.9c2.6,0,5.1,0.3,7.6,0.9
	c1.8,0.4,3.6,1.1,5.3,2l-2.1,6.9c-1.1-0.4-2.6-0.9-4.3-1.4c-1.7-0.5-3.5-0.7-5.2-0.7c-2.9,0-4.3,1.1-4.3,3.3c0,0.9,0.5,1.7,1.2,2.1
	c1,0.6,2,1.1,3.1,1.5c1.2,0.5,2.6,1,4.1,1.5c1.4,0.5,2.8,1.2,4.1,2.1c1.3,0.9,2.3,2,3.1,3.4c0.9,1.6,1.3,3.5,1.2,5.3
	c0.2,3.3-1.1,6.5-3.6,8.8c-2.4,2.1-6,3.2-10.7,3.2c-2.5,0-5-0.3-7.3-1c-2-0.5-3.8-1.3-5.6-2.3l2.7-7.1c1.4,0.8,2.9,1.4,4.5,1.9
	c1.9,0.6,3.8,0.9,5.8,0.9c1.2,0.1,2.4-0.2,3.4-0.8C534,371.4,534.5,370.3,534.4,369.3z"/>
<path class="st8" d="M546.5,342.6h5.1v-6.9l9.6-2.7v9.7h9v8.1h-9v14.2c-0.1,1.9,0.1,3.7,0.8,5.5c0.5,1.1,1.7,1.8,2.9,1.7
	c0.9,0,1.7-0.1,2.5-0.3c0.8-0.2,1.6-0.5,2.4-0.9l1.7,7.4c-1.5,0.7-3,1.2-4.7,1.6c-1.8,0.4-3.6,0.7-5.4,0.7c-3.4,0-5.9-0.9-7.5-2.6
	s-2.4-4.6-2.4-8.6v-18.6h-5.1L546.5,342.6L546.5,342.6z"/>
<path class="st8" d="M605.2,376.3c-1.8,1.4-3.8,2.4-6,3c-2.6,0.8-5.3,1.2-8.1,1.2c-5.9,0-10.3-1.7-13-5.2c-2.8-3.5-4.1-8.2-4.1-14.3
	c0-6.5,1.5-11.4,4.7-14.6c3.1-3.2,7.5-4.9,13-4.9c1.8,0,3.7,0.2,5.5,0.7c1.7,0.5,3.3,1.3,4.7,2.4c1.5,1.2,2.6,2.8,3.3,4.6
	c0.9,2.3,1.3,4.7,1.2,7.1c0,1.1-0.1,2.2-0.2,3.3c-0.1,1.2-0.3,2.4-0.5,3.7h-22.1c0.1,3.1,0.9,5.4,2.4,7s3.8,2.4,7,2.4
	c3.3,0,6.4-0.9,9.1-2.8L605.2,376.3z M591.4,349.2c-2.5,0-4.4,0.8-5.6,2.2c-1.3,1.7-2.1,3.8-2.2,6h13.7c0.2-2.7-0.2-4.7-1.2-6.1
	C595.1,349.9,593.3,349.1,591.4,349.2L591.4,349.2z"/>
<path class="st8" d="M628.4,369.3c0-0.9-0.5-1.8-1.2-2.4c-1-0.7-2-1.2-3.1-1.6c-1.2-0.5-2.6-1-4.1-1.5c-1.5-0.5-2.8-1.2-4.1-2.1
	c-1.3-0.9-2.3-2.1-3.1-3.5c-0.9-1.7-1.3-3.5-1.2-5.4c0-3.6,1.1-6.4,3.2-8.3c2.2-1.9,5.3-2.9,9.4-2.9c2.6,0,5.1,0.3,7.6,0.9
	c1.8,0.4,3.6,1.1,5.3,2l-2.1,6.9c-1.1-0.4-2.6-0.9-4.3-1.4c-1.7-0.5-3.5-0.7-5.2-0.7c-2.9,0-4.3,1.1-4.3,3.3c0,0.9,0.5,1.7,1.2,2.1
	c1,0.6,2,1.1,3.1,1.5c1.2,0.5,2.6,1,4.1,1.5c1.4,0.5,2.8,1.2,4.1,2.1c1.3,0.9,2.3,2,3.1,3.4c0.9,1.6,1.3,3.5,1.2,5.3
	c0.2,3.3-1.1,6.5-3.6,8.8c-2.4,2.1-6,3.2-10.7,3.2c-2.5,0-5-0.3-7.3-1c-2-0.5-3.8-1.3-5.6-2.3l2.7-7.1c1.4,0.8,2.9,1.4,4.5,1.9
	c1.9,0.6,3.8,0.9,5.8,0.9c1.2,0.1,2.4-0.2,3.4-0.8C628,371.4,628.5,370.3,628.4,369.3z"/>
<path class="st8" d="M640.4,342.6h5.1v-6.9l9.6-2.7v9.7h9v8.1h-9v14.2c-0.1,1.9,0.1,3.7,0.8,5.5c0.5,1.1,1.7,1.8,2.9,1.7
	c0.9,0,1.7-0.1,2.5-0.3c0.8-0.2,1.6-0.5,2.4-0.9l1.7,7.4c-1.5,0.7-3,1.2-4.7,1.6c-1.8,0.4-3.6,0.7-5.4,0.7c-3.4,0-5.9-0.9-7.5-2.6
	s-2.4-4.6-2.4-8.6v-18.6h-5.1V342.6z"/>
<path class="st8" d="M714.7,377.2c-1.6,1.1-3.4,2-5.3,2.5c-2.1,0.6-4.3,0.9-6.5,0.9c-2.6,0.1-5.1-0.4-7.5-1.4c-2-0.9-3.7-2.2-5-4
	c-1.3-1.8-2.3-3.9-2.8-6.2c-0.6-2.6-0.9-5.3-0.8-8c0-6.2,1.4-11,4.2-14.4s6.9-5.1,12.2-5c2.2-0.1,4.4,0.2,6.5,0.7
	c1.5,0.4,3,1,4.5,1.7l-2.3,7.8c-1.1-0.5-2.2-0.9-3.4-1.2c-1.2-0.3-2.5-0.5-3.8-0.4c-2.3-0.1-4.5,0.8-6,2.6c-1.4,1.7-2.1,4.5-2.1,8.4
	c0,1.5,0.2,2.9,0.5,4.4c0.3,1.2,0.8,2.4,1.5,3.5c0.7,1,1.6,1.8,2.7,2.3c1.2,0.6,2.5,0.9,3.9,0.9c1.4,0,2.8-0.2,4.1-0.6
	c1.1-0.4,2.1-0.9,3-1.5L714.7,377.2z"/>
<path class="st8" d="M720.3,344.7c2.2-1,4.6-1.7,7-2.1c2.8-0.5,5.6-0.8,8.5-0.8c2.2-0.1,4.3,0.3,6.4,0.9c3.1,1,5.5,3.5,6.2,6.7
	c0.4,1.7,0.6,3.5,0.6,5.3c0,2.2-0.1,4.3-0.2,6.5c-0.1,2.2-0.2,4.3-0.3,6.5c0,2.1,0.1,4.2,0.2,6.2c0.1,1.9,0.5,3.8,1.1,5.6h-7.8
	l-1.5-5.1h-0.4c-1.1,1.6-2.5,2.9-4.1,4c-2,1.2-4.4,1.8-6.8,1.7c-1.6,0-3.2-0.2-4.7-0.8c-2.6-1-4.8-3-5.8-5.6
	c-0.6-1.4-0.8-2.9-0.8-4.4c-0.1-2,0.5-4,1.5-5.7c1.1-1.6,2.6-2.9,4.3-3.8c2.1-1,4.4-1.7,6.8-2c2.9-0.4,5.9-0.5,8.8-0.3
	c0.3-2.8,0.1-4.7-0.6-5.9s-2.4-1.8-4.9-1.8c-2,0-4.1,0.2-6.1,0.6c-1.8,0.3-3.6,0.8-5.3,1.5L720.3,344.7z M732.5,372.1
	c1.6,0.1,3.2-0.4,4.6-1.3c1-0.7,1.9-1.7,2.5-2.8v-4.8c-1.5-0.1-2.9-0.2-4.4-0.1c-1.3,0.1-2.5,0.3-3.7,0.7c-1,0.3-1.9,0.8-2.6,1.5
	c-0.7,0.6-1,1.5-1,2.4c-0.1,1.2,0.4,2.4,1.2,3.2C730.1,371.8,731.3,372.2,732.5,372.1L732.5,372.1z"/>
<path class="st8" d="M753.3,342.6h5.1v-6.9l9.6-2.7v9.7h9v8.1h-9v14.2c-0.1,1.9,0.1,3.7,0.8,5.5c0.5,1.1,1.7,1.8,2.9,1.7
	c0.9,0,1.7-0.1,2.5-0.3c0.8-0.2,1.6-0.5,2.4-0.9l1.7,7.4c-1.5,0.7-3,1.2-4.7,1.6c-1.8,0.4-3.6,0.7-5.4,0.7c-3.4,0-5.9-0.9-7.5-2.6
	s-2.4-4.6-2.4-8.6v-18.6h-5.1L753.3,342.6L753.3,342.6z"/>
<path class="st8" d="M346.8,492.2c-1.6,1.1-3.4,2-5.4,2.5c-2.1,0.6-4.3,0.9-6.5,0.9c-2.6,0.1-5.1-0.4-7.5-1.4c-2-0.9-3.7-2.2-5-4
	c-1.3-1.8-2.3-3.9-2.8-6.2c-0.6-2.6-0.9-5.3-0.9-8c0-6.2,1.4-11,4.2-14.4c2.8-3.4,6.9-5.1,12.2-5c2.2-0.1,4.4,0.2,6.5,0.7
	c1.5,0.4,3,1,4.5,1.7l-2.3,7.8c-1.1-0.5-2.2-0.9-3.4-1.2c-1.2-0.3-2.5-0.5-3.8-0.4c-2.3-0.1-4.5,0.8-6,2.6c-1.4,1.7-2.1,4.5-2.1,8.4
	c0,1.5,0.2,2.9,0.5,4.4c0.3,1.2,0.8,2.4,1.5,3.5c0.7,1,1.6,1.8,2.7,2.3c1.2,0.6,2.5,0.9,3.9,0.9c1.4,0,2.8-0.2,4.1-0.6
	c1.1-0.4,2.1-0.9,3-1.5L346.8,492.2z"/>
<path class="st8" d="M352.4,459.7c2.2-1,4.6-1.7,7-2.1c2.8-0.5,5.6-0.8,8.5-0.8c2.2-0.1,4.3,0.3,6.4,0.9c3.1,1,5.5,3.5,6.2,6.7
	c0.4,1.7,0.6,3.5,0.6,5.3c0,2.2-0.1,4.3-0.2,6.5s-0.2,4.3-0.3,6.5c0,2.1,0.1,4.2,0.2,6.2c0.1,1.9,0.5,3.8,1.1,5.6h-7.8l-1.5-5.1
	h-0.4c-1.1,1.6-2.5,2.9-4.1,4c-2,1.2-4.4,1.8-6.8,1.7c-1.6,0-3.2-0.2-4.6-0.8c-2.6-1-4.8-3-5.8-5.6c-0.6-1.4-0.8-2.9-0.8-4.4
	c-0.1-2,0.5-4,1.5-5.7c1.1-1.6,2.6-2.9,4.4-3.8c2.1-1,4.4-1.7,6.8-2c2.9-0.4,5.9-0.5,8.8-0.3c0.3-2.8,0.1-4.7-0.6-5.9
	s-2.4-1.8-4.9-1.8c-2,0-4.1,0.2-6.1,0.6c-1.8,0.3-3.6,0.8-5.3,1.5L352.4,459.7z M364.6,487.1c1.6,0.1,3.2-0.4,4.6-1.3
	c1-0.7,1.9-1.7,2.5-2.8v-4.8c-1.5-0.1-2.9-0.2-4.4-0.1c-1.3,0.1-2.5,0.3-3.7,0.7c-1,0.3-1.9,0.8-2.6,1.5c-0.7,0.6-1,1.5-1,2.4
	c-0.1,1.2,0.4,2.4,1.2,3.2C362.1,486.8,363.4,487.2,364.6,487.1L364.6,487.1z"/>
<path class="st8" d="M411.8,494.4v-20.9c0-3-0.4-5.2-1.3-6.5s-2.3-2-4.4-2c-1.7,0-3.3,0.5-4.6,1.6c-1.2,1-2.2,2.4-2.7,4v23.9h-9.6
	v-36.9h7.6l1.1,4.9h0.3c1.2-1.7,2.7-3.1,4.5-4.1c2.2-1.3,4.7-1.9,7.2-1.8c1.7,0,3.3,0.2,4.9,0.7c1.4,0.5,2.6,1.3,3.6,2.4
	c1.1,1.3,1.8,2.9,2.2,4.6c0.5,2.4,0.8,4.8,0.7,7.2v22.9L411.8,494.4L411.8,494.4z"/>
<path class="st8" d="M468.4,466.6c-1.3-0.5-2.7-0.8-4.1-0.8c-1.6-0.1-3.1,0.4-4.3,1.4c-1.1,0.9-2,2.1-2.3,3.5v23.8h-9.6v-36.9h7.5
	l1.1,4.9h0.3c0.7-1.7,1.9-3.1,3.4-4.2c1.5-1,3.2-1.5,5-1.5c1.5,0,3,0.3,4.4,0.8L468.4,466.6z"/>
<path class="st8" d="M473.7,459.7c2.2-1,4.6-1.7,7-2.1c2.8-0.5,5.6-0.8,8.5-0.8c2.2-0.1,4.3,0.3,6.4,0.9c3.1,1,5.5,3.5,6.2,6.7
	c0.4,1.7,0.6,3.5,0.6,5.3c0,2.2-0.1,4.3-0.2,6.5s-0.2,4.3-0.3,6.4c0,2.1,0.1,4.2,0.2,6.2c0.1,1.9,0.5,3.8,1.1,5.6h-7.8l-1.5-5.1
	h-0.4c-1.1,1.6-2.5,2.9-4.1,4c-2,1.2-4.4,1.8-6.8,1.7c-1.6,0-3.2-0.2-4.6-0.8c-2.6-1-4.8-3-5.8-5.6c-0.6-1.4-0.8-2.9-0.8-4.4
	c-0.1-2,0.5-4,1.5-5.7c1.1-1.6,2.6-2.9,4.4-3.8c2.1-1,4.4-1.7,6.8-2c2.9-0.4,5.9-0.5,8.8-0.3c0.3-2.8,0.1-4.7-0.6-5.9
	s-2.4-1.8-4.9-1.8c-2,0-4.1,0.2-6.1,0.6c-1.8,0.3-3.6,0.8-5.3,1.5L473.7,459.7z M485.9,487.1c1.6,0.1,3.2-0.4,4.6-1.3
	c1-0.7,1.9-1.7,2.5-2.8v-4.8c-1.5-0.1-2.9-0.2-4.4-0.1c-1.3,0.1-2.5,0.3-3.7,0.7c-1,0.3-1.9,0.8-2.6,1.5c-0.7,0.6-1,1.5-1,2.4
	c-0.1,1.2,0.4,2.4,1.2,3.2C483.4,486.8,484.7,487.2,485.9,487.1L485.9,487.1z"/>
<path class="st8" d="M536.6,492.2c-1.6,1.1-3.4,2-5.3,2.5c-2.1,0.6-4.3,0.9-6.5,0.9c-2.6,0.1-5.1-0.4-7.5-1.4c-2-0.9-3.7-2.2-5-4
	c-1.3-1.8-2.3-3.9-2.8-6.2c-0.6-2.6-0.9-5.3-0.9-8c0-6.2,1.4-11,4.2-14.4c2.8-3.4,6.9-5.1,12.2-5c2.2-0.1,4.4,0.2,6.5,0.7
	c1.5,0.4,3,1,4.5,1.7l-2.3,7.8c-1.1-0.5-2.2-0.9-3.4-1.2c-1.2-0.3-2.5-0.5-3.8-0.4c-2.3-0.1-4.5,0.8-6,2.6c-1.4,1.7-2.1,4.5-2.1,8.4
	c0,1.5,0.2,2.9,0.5,4.4c0.3,1.2,0.8,2.4,1.5,3.5c0.7,1,1.6,1.8,2.7,2.3c1.2,0.6,2.5,0.9,3.9,0.9c1.4,0,2.8-0.2,4.1-0.6
	c1.1-0.4,2.1-0.9,3-1.5L536.6,492.2z"/>
<path class="st8" d="M570.7,491.3c-1.8,1.4-3.8,2.4-6,3c-2.6,0.8-5.3,1.2-8.1,1.2c-5.9,0-10.3-1.7-13-5.2c-2.8-3.5-4.1-8.2-4.1-14.3
	c0-6.5,1.5-11.4,4.7-14.6c3.1-3.2,7.5-4.9,13-4.9c1.8,0,3.7,0.2,5.5,0.7c1.7,0.5,3.3,1.3,4.7,2.4c1.5,1.2,2.6,2.8,3.3,4.6
	c0.9,2.3,1.3,4.7,1.2,7.1c0,1.1-0.1,2.2-0.2,3.3c-0.1,1.2-0.3,2.4-0.5,3.7H549c0.1,3.1,0.9,5.4,2.4,7s3.8,2.4,7,2.4
	c3.2,0,6.4-1,9.1-2.8L570.7,491.3z M557,464.2c-2.5,0-4.4,0.8-5.6,2.2c-1.3,1.7-2.1,3.8-2.2,6H563c0.2-2.7-0.2-4.7-1.2-6.1
	C560.7,464.9,558.9,464.1,557,464.2z"/>
<path class="st8" d="M597.1,459.7c2.2-1,4.6-1.7,7-2.1c2.8-0.5,5.6-0.8,8.5-0.8c2.2-0.1,4.3,0.3,6.4,0.9c3.1,1,5.5,3.5,6.2,6.7
	c0.4,1.7,0.6,3.5,0.6,5.3c0,2.2-0.1,4.3-0.2,6.5c-0.1,2.2-0.2,4.3-0.3,6.5c0,2.1,0.1,4.2,0.2,6.2c0.1,1.9,0.5,3.8,1.1,5.6h-7.8
	l-1.5-5.1h-0.4c-1.1,1.6-2.5,2.9-4.1,4c-2,1.2-4.4,1.8-6.8,1.7c-1.6,0-3.2-0.2-4.7-0.8c-2.6-1-4.8-3-5.8-5.6
	c-0.6-1.4-0.8-2.9-0.8-4.4c-0.1-2,0.5-4,1.5-5.7c1.1-1.6,2.6-2.9,4.3-3.8c2.1-1,4.4-1.7,6.8-2c2.9-0.4,5.9-0.5,8.8-0.3
	c0.3-2.8,0.1-4.7-0.6-5.9c-0.7-1.2-2.4-1.8-4.9-1.8c-2,0-4.1,0.2-6.1,0.6c-1.8,0.3-3.6,0.8-5.3,1.5L597.1,459.7z M609.3,487.1
	c1.6,0.1,3.2-0.4,4.6-1.3c1-0.7,1.9-1.7,2.5-2.8v-4.8c-1.5-0.1-2.9-0.2-4.4-0.1c-1.3,0.1-2.5,0.3-3.7,0.7c-1,0.3-1.9,0.8-2.6,1.5
	c-0.7,0.6-1,1.5-1,2.4c-0.1,1.2,0.4,2.4,1.2,3.2C606.8,486.8,608,487.2,609.3,487.1L609.3,487.1z"/>
<path class="st8" d="M630.1,457.6h5.1v-6.9l9.6-2.7v9.7h9v8.1h-9v14.2c-0.1,1.9,0.1,3.7,0.8,5.5c0.5,1.1,1.7,1.8,2.9,1.7
	c0.9,0,1.7-0.1,2.5-0.3c0.8-0.2,1.6-0.5,2.4-0.9l1.7,7.4c-1.5,0.7-3,1.2-4.7,1.6c-1.8,0.4-3.6,0.7-5.4,0.7c-3.4,0-5.9-0.9-7.5-2.6
	s-2.4-4.6-2.4-8.6v-18.6h-5.1L630.1,457.6L630.1,457.6z"/>
<path class="st8" d="M681.8,494.4l16.9-39.8l3.2-3.6l-4.4,0.7h-19v-9h33.3v2.8l-20.7,48.8H681.8L681.8,494.4z"/>
<path class="st8" d="M732.1,487c3.2,0,5.7-0.8,7.5-2.4c1.8-1.7,2.7-4.1,2.6-6.5c0-2.9-1-5.1-3-6.5c-2-1.4-4.9-2.1-8.6-2.1l-5.8,0.2
	v-27h25.4v9H733v10l3-0.3c2.2,0.1,4.4,0.5,6.5,1.3c1.9,0.7,3.6,1.9,5,3.3c1.4,1.5,2.5,3.2,3.2,5.1c0.8,2.1,1.1,4.4,1.1,6.7
	c0.1,2.6-0.4,5.2-1.5,7.7c-0.9,2.1-2.3,4-4.1,5.5c-1.8,1.5-3.9,2.6-6.2,3.3c-2.5,0.8-5.1,1.1-7.7,1.1c-2.1,0-4.2-0.2-6.3-0.5
	c-1.7-0.3-3.4-0.8-5-1.5l2.6-8c1.2,0.5,2.4,0.9,3.7,1.1C728.9,486.9,730.5,487,732.1,487z"/>
</svg>
